<svg version="1.2" xmlns="http://www.w3.org/2000/svg" viewBox="0 0 484 482" width="10" height="10">
	<title>check-svg</title>
	<style>
		.s0 { fill: #008f0f } 
		.s1 { fill: #ffffff } 
	</style>
	<path id="Layer" class="s0" d="m244 462.7c-124.4 0-225-100.6-225-225 0-124.4 100.6-225 225-225 124.4 0 225 100.6 225 225 0 124.4-100.6 225-225 225z"/>
	<path id="Layer" class="s1" d="m137.6 246.9c3.2 0.5 5 2.9 7 4.9 9.5 9.4 19.5 18.5 28.3 28.6 6.6 7.6 10.6 6.2 17.1-0.4 50.5-51 101.3-101.6 152.1-152.3q10.1-10 20.3 0.1c7.2 7.1 14 14.8 21.7 21.3 7.6 6.3 6.8 10.8 0.2 17.5-42.3 41.8-84.2 83.9-126.2 125.9-23 23-46.3 45.9-69 69.3-6.1 6.2-9.8 5.8-15.7-0.2-22.5-23.1-45.3-46-68.4-68.4-6.5-6.3-6.7-10.7 0-16.7 8.8-8 17-16.8 25.4-25.2 2.1-2 4-4.3 7.2-4.4z"/>
</svg>