<?xml version="1.0" encoding="UTF-8"?>
<svg id="Layer_1" data-name="Layer 1" xmlns="http://www.w3.org/2000/svg" version="1.1" viewBox="0 0 1080 1080">
  <defs>
    <style>
      .cls-1 {
        fill: #008f0f;
      }

      .cls-1, .cls-2 {
        stroke-width: 0px;
      }

      .cls-2 {
        fill: #fff;
      }
    </style>
  </defs>
  <circle class="cls-1" cx="540" cy="519.69" r="225"/>
  <path class="cls-2" d="M433.64,528.88c3.12.51,4.93,2.9,6.96,4.92,9.5,9.45,19.46,18.51,28.27,28.57,6.64,7.58,10.65,6.21,17.17-.37,50.46-50.97,101.3-101.56,152.03-152.26q10.09-10.08,20.33.06c7.2,7.13,13.96,14.8,21.71,21.27,7.6,6.34,6.8,10.88.14,17.48-42.22,41.8-84.11,83.92-126.11,125.93-23.05,23.05-46.32,45.9-69.04,69.27-6.11,6.29-9.84,5.81-15.69-.19-22.5-23.08-45.28-45.91-68.39-68.38-6.47-6.29-6.76-10.64-.04-16.7,8.85-7.99,16.98-16.76,25.46-25.16,2.04-2.02,3.97-4.31,7.21-4.43Z"/>
</svg>