<?xml version="1.0" encoding="utf-8"?>
<!-- Generator: Adobe Illustrator 16.0.0, SVG Export Plug-In . SVG Version: 6.00 Build 0)  -->
<!DOCTYPE svg PUBLIC "-//W3C//DTD SVG 1.1//EN" "http://www.w3.org/Graphics/SVG/1.1/DTD/svg11.dtd">
<svg version="1.1" id="Layer_1" xmlns="http://www.w3.org/2000/svg" xmlns:xlink="http://www.w3.org/1999/xlink" x="0px" y="0px"
	 width="17.187px" height="14.172px" viewBox="0 0 17.187 14.172" enable-background="new 0 0 17.187 14.172" xml:space="preserve">
<path fill="#FFFFFF" d="M0.544,5.032c0.497,0.181,0.904,0.397,1.454,0.356c-1.466-1.342-1.886-2.855-0.975-4.69
	c1.956,2.195,4.313,3.514,7.292,3.698c0-0.197,0.006-0.354-0.001-0.51c-0.083-1.578,0.565-2.782,1.97-3.48
	c1.357-0.674,2.688-0.496,3.895,0.442c0.115,0.089,0.221,0.187,0.389,0.33c0.668-0.246,1.359-0.498,2.096-0.767
	c-0.154,0.764-0.658,1.242-1.264,1.75c0.65,0.004,1.166-0.235,1.787-0.433c-0.43,0.821-1.094,1.297-1.666,1.83
	c-0.152,4.565-2.053,8.036-6.377,9.811C6.025,14.646,2.919,14.406,0,12.602c1.808,0.034,3.486-0.313,5.037-1.516
	C3.435,10.864,2.345,10.12,1.789,8.6h1.318l0.041-0.107C2.423,8.208,1.745,7.857,1.275,7.22C0.812,6.589,0.569,5.885,0.544,5.032"/>
<g>
</g>
<g>
</g>
<g>
</g>
<g>
</g>
<g>
</g>
<g>
</g>
</svg>
