<?xml version="1.0" encoding="utf-8"?>
<!-- Generator: Adobe Illustrator 16.0.0, SVG Export Plug-In . SVG Version: 6.00 Build 0)  -->
<!DOCTYPE svg PUBLIC "-//W3C//DTD SVG 1.1//EN" "http://www.w3.org/Graphics/SVG/1.1/DTD/svg11.dtd">
<svg version="1.1" id="Layer_1" xmlns="http://www.w3.org/2000/svg" xmlns:xlink="http://www.w3.org/1999/xlink" x="0px" y="0px"
	 width="16.132px" height="16.056px" viewBox="0 0 16.132 16.056" enable-background="new 0 0 16.132 16.056" xml:space="preserve">
<path fill="#FFFFFF" d="M8.064,0.004c1.074,0,2.152-0.011,3.227,0.002c2.678,0.03,4.764,2.051,4.811,4.716
	c0.041,2.182,0.041,4.366,0.004,6.548c-0.047,2.726-2.143,4.762-4.875,4.777c-2.096,0.011-4.191,0.013-6.289-0.002
	c-2.854-0.021-4.928-2.104-4.934-4.947C0.001,8.989-0.008,6.879,0.011,4.77C0.035,2.45,1.638,0.541,3.916,0.09
	c0.318-0.064,0.65-0.081,0.977-0.084c1.059-0.011,2.115-0.004,3.172-0.004V0.004z M8.076,1.323V1.33
	c-1.111,0-2.225-0.023-3.334,0.006C2.906,1.381,1.396,2.84,1.361,4.671c-0.045,2.233-0.018,4.469-0.01,6.704
	c0.004,0.753,0.287,1.416,0.758,2c0.746,0.929,1.73,1.352,2.91,1.353c2.002,0.002,4.008,0.001,6.01-0.002
	c0.199,0,0.4-0.011,0.6-0.034c1.801-0.199,3.133-1.648,3.148-3.46c0.018-2.126-0.012-4.252,0.008-6.377
	c0.02-1.915-1.607-3.576-3.596-3.535C10.152,1.341,9.113,1.323,8.076,1.323"/>
<path fill="#FFFFFF" d="M8.085,3.937c2.273,0.003,4.094,1.824,4.086,4.093c-0.008,2.289-1.863,4.125-4.16,4.087
	c-2.162-0.036-4.045-1.68-4.053-4.078C3.951,5.282,6.283,3.85,8.085,3.937 M8.044,10.777c1.549,0.009,2.787-1.214,2.789-2.751
	c0.002-1.53-1.244-2.77-2.781-2.768C6.546,5.259,5.3,6.495,5.291,7.991C5.279,9.533,6.501,10.768,8.044,10.777"/>
<path fill="#FFFFFF" d="M13.074,3.787c0.01,0.456-0.332,0.807-0.777,0.8c-0.422-0.007-0.773-0.337-0.795-0.746
	c-0.023-0.423,0.344-0.82,0.766-0.829C12.722,3.001,13.066,3.331,13.074,3.787"/>
<g>
</g>
<g>
</g>
<g>
</g>
<g>
</g>
<g>
</g>
<g>
</g>
</svg>
