<?xml version="1.0" encoding="utf-8"?>
<!-- Generator: Adobe Illustrator 16.0.0, SVG Export Plug-In . SVG Version: 6.00 Build 0)  -->
<!DOCTYPE svg PUBLIC "-//W3C//DTD SVG 1.1//EN" "http://www.w3.org/Graphics/SVG/1.1/DTD/svg11.dtd">
<svg version="1.1" id="Layer_1" xmlns="http://www.w3.org/2000/svg" xmlns:xlink="http://www.w3.org/1999/xlink" x="0px" y="0px"
	 width="7.248px" height="14.503px" viewBox="0 0 7.248 14.503" enable-background="new 0 0 7.248 14.503" xml:space="preserve">
<path fill="#FFFFFF" d="M4.558,14.503V7.721h2.689V5.269h-2.68c0-0.529-0.05-0.986,0.012-1.427c0.113-0.833,0.662-1.304,1.503-1.349
	c0.374-0.02,0.751-0.004,1.163-0.004V0.046c-0.75-0.081-1.498-0.048-2.248,0.028C4.4,0.136,3.855,0.332,3.367,0.68
	c-0.961,0.681-1.45,1.626-1.506,2.789c-0.029,0.564-0.006,1.132-0.006,1.77H0.021c-0.037,0.853-0.014,1.633-0.017,2.485h1.823v6.728
	L4.558,14.503z"/>
<g>
</g>
<g>
</g>
<g>
</g>
<g>
</g>
<g>
</g>
<g>
</g>
</svg>
