<svg xmlns="http://www.w3.org/2000/svg" viewBox="0 0 8.43 8.19"><g id="Layer_2" data-name="Layer 2"><g id="LAYER_1-2" data-name="LAYER 1"><g id="qv0IQO"><path d="M8.42,6.14A1.64,1.64,0,0,1,7.28,8,2.21,2.21,0,0,1,5.8,8.1,8.57,8.57,0,0,1,2.7,6.5a10.55,10.55,0,0,1-2.32-3A3,3,0,0,1,0,1.65,2.47,2.47,0,0,1,.85.2.78.78,0,0,1,1.41,0c.14,0,.27,0,.41,0a.4.4,0,0,1,.4.29c.21.57.42,1.13.64,1.7a.45.45,0,0,1-.08.46c-.14.19-.29.37-.45.55s-.24.31-.09.57A5.62,5.62,0,0,0,4.63,5.94L5,6.11c.26.12.34.11.53-.1s.42-.47.63-.71.22-.22.39-.15A21.44,21.44,0,0,1,8.42,6.14Z"/></g></g></g></svg>